<mxfile host="app.diagrams.net" modified="2024-07-08T17:16:08.857Z" agent="Mozilla/5.0 (Windows NT 10.0; Win64; x64) AppleWebKit/537.36 (KHTML, like Gecko) Chrome/126.0.0.0 Safari/537.36" etag="jelO9T5rFVxPj7kcpq2D" version="24.6.4" type="github">
  <diagram name="Страница — 1" id="xi5l1DI4Z5YFvDBLqckl">
    <mxGraphModel dx="1434" dy="746" grid="0" gridSize="10" guides="1" tooltips="1" connect="1" arrows="1" fold="1" page="1" pageScale="1" pageWidth="827" pageHeight="1169" math="0" shadow="0">
      <root>
        <mxCell id="0" />
        <mxCell id="1" parent="0" />
        <mxCell id="vgEeMwDEZ6jyyLXf4dS--38" value="" style="edgeStyle=orthogonalEdgeStyle;rounded=0;orthogonalLoop=1;jettySize=auto;html=1;" edge="1" parent="1" source="vgEeMwDEZ6jyyLXf4dS--1" target="vgEeMwDEZ6jyyLXf4dS--37">
          <mxGeometry relative="1" as="geometry" />
        </mxCell>
        <mxCell id="vgEeMwDEZ6jyyLXf4dS--1" value="" style="ellipse;whiteSpace=wrap;html=1;aspect=fixed;labelBackgroundColor=none;" vertex="1" parent="1">
          <mxGeometry x="91" y="112" width="52" height="52" as="geometry" />
        </mxCell>
        <mxCell id="vgEeMwDEZ6jyyLXf4dS--2" value="Старт" style="text;html=1;align=center;verticalAlign=middle;whiteSpace=wrap;rounded=0;labelBackgroundColor=none;" vertex="1" parent="1">
          <mxGeometry x="90" y="90" width="60" height="30" as="geometry" />
        </mxCell>
        <mxCell id="vgEeMwDEZ6jyyLXf4dS--9" value="Ввод данных" style="rounded=0;whiteSpace=wrap;html=1;" vertex="1" parent="1">
          <mxGeometry x="57" y="313" width="120" height="60" as="geometry" />
        </mxCell>
        <mxCell id="vgEeMwDEZ6jyyLXf4dS--20" style="edgeStyle=orthogonalEdgeStyle;rounded=0;orthogonalLoop=1;jettySize=auto;html=1;exitX=1;exitY=0.5;exitDx=0;exitDy=0;" edge="1" parent="1" source="vgEeMwDEZ6jyyLXf4dS--10" target="vgEeMwDEZ6jyyLXf4dS--17">
          <mxGeometry relative="1" as="geometry" />
        </mxCell>
        <mxCell id="vgEeMwDEZ6jyyLXf4dS--10" value="Ошибка в данных" style="rhombus;whiteSpace=wrap;html=1;" vertex="1" parent="1">
          <mxGeometry x="77" y="414" width="80" height="80" as="geometry" />
        </mxCell>
        <mxCell id="vgEeMwDEZ6jyyLXf4dS--11" value="" style="endArrow=classic;html=1;rounded=0;exitX=0.5;exitY=1;exitDx=0;exitDy=0;entryX=0.5;entryY=0;entryDx=0;entryDy=0;" edge="1" parent="1" source="vgEeMwDEZ6jyyLXf4dS--9" target="vgEeMwDEZ6jyyLXf4dS--10">
          <mxGeometry width="50" height="50" relative="1" as="geometry">
            <mxPoint x="384" y="506" as="sourcePoint" />
            <mxPoint x="434" y="456" as="targetPoint" />
          </mxGeometry>
        </mxCell>
        <mxCell id="vgEeMwDEZ6jyyLXf4dS--12" value="" style="endArrow=classic;html=1;rounded=0;entryX=0.5;entryY=0;entryDx=0;entryDy=0;" edge="1" parent="1" target="vgEeMwDEZ6jyyLXf4dS--13">
          <mxGeometry width="50" height="50" relative="1" as="geometry">
            <mxPoint x="117" y="494" as="sourcePoint" />
            <mxPoint x="130" y="520" as="targetPoint" />
          </mxGeometry>
        </mxCell>
        <mxCell id="vgEeMwDEZ6jyyLXf4dS--24" style="edgeStyle=orthogonalEdgeStyle;rounded=0;orthogonalLoop=1;jettySize=auto;html=1;exitX=1;exitY=0.5;exitDx=0;exitDy=0;entryX=0;entryY=0.5;entryDx=0;entryDy=0;" edge="1" parent="1" source="vgEeMwDEZ6jyyLXf4dS--13" target="vgEeMwDEZ6jyyLXf4dS--23">
          <mxGeometry relative="1" as="geometry" />
        </mxCell>
        <mxCell id="vgEeMwDEZ6jyyLXf4dS--13" value="Отправка данных на вычисление" style="rounded=0;whiteSpace=wrap;html=1;" vertex="1" parent="1">
          <mxGeometry x="57" y="535" width="120" height="60" as="geometry" />
        </mxCell>
        <mxCell id="vgEeMwDEZ6jyyLXf4dS--16" value="Нет" style="text;html=1;align=center;verticalAlign=middle;whiteSpace=wrap;rounded=0;" vertex="1" parent="1">
          <mxGeometry x="66" y="494" width="60" height="30" as="geometry" />
        </mxCell>
        <mxCell id="vgEeMwDEZ6jyyLXf4dS--22" style="edgeStyle=orthogonalEdgeStyle;rounded=0;orthogonalLoop=1;jettySize=auto;html=1;exitX=0.5;exitY=0;exitDx=0;exitDy=0;entryX=1;entryY=0.5;entryDx=0;entryDy=0;" edge="1" parent="1" source="vgEeMwDEZ6jyyLXf4dS--17" target="vgEeMwDEZ6jyyLXf4dS--9">
          <mxGeometry relative="1" as="geometry">
            <mxPoint x="318" y="335" as="targetPoint" />
          </mxGeometry>
        </mxCell>
        <mxCell id="vgEeMwDEZ6jyyLXf4dS--17" value="Повторный запрос" style="rounded=0;whiteSpace=wrap;html=1;" vertex="1" parent="1">
          <mxGeometry x="258" y="424" width="120" height="60" as="geometry" />
        </mxCell>
        <mxCell id="vgEeMwDEZ6jyyLXf4dS--21" value="Да" style="text;html=1;align=center;verticalAlign=middle;whiteSpace=wrap;rounded=0;" vertex="1" parent="1">
          <mxGeometry x="170" y="418" width="60" height="30" as="geometry" />
        </mxCell>
        <mxCell id="vgEeMwDEZ6jyyLXf4dS--23" value="Отправка ответа системы" style="rounded=0;whiteSpace=wrap;html=1;" vertex="1" parent="1">
          <mxGeometry x="258" y="535" width="120" height="60" as="geometry" />
        </mxCell>
        <mxCell id="vgEeMwDEZ6jyyLXf4dS--27" style="edgeStyle=orthogonalEdgeStyle;rounded=0;orthogonalLoop=1;jettySize=auto;html=1;entryX=1;entryY=0.5;entryDx=0;entryDy=0;" edge="1" parent="1" source="vgEeMwDEZ6jyyLXf4dS--25" target="vgEeMwDEZ6jyyLXf4dS--17">
          <mxGeometry relative="1" as="geometry">
            <mxPoint x="454" y="428" as="targetPoint" />
            <Array as="points">
              <mxPoint x="469" y="454" />
            </Array>
          </mxGeometry>
        </mxCell>
        <mxCell id="vgEeMwDEZ6jyyLXf4dS--32" style="edgeStyle=orthogonalEdgeStyle;rounded=0;orthogonalLoop=1;jettySize=auto;html=1;exitX=1;exitY=0.5;exitDx=0;exitDy=0;entryX=0;entryY=0.5;entryDx=0;entryDy=0;" edge="1" parent="1" source="vgEeMwDEZ6jyyLXf4dS--25" target="vgEeMwDEZ6jyyLXf4dS--30">
          <mxGeometry relative="1" as="geometry" />
        </mxCell>
        <mxCell id="vgEeMwDEZ6jyyLXf4dS--25" value="Ошибка" style="rhombus;whiteSpace=wrap;html=1;" vertex="1" parent="1">
          <mxGeometry x="429" y="525" width="80" height="80" as="geometry" />
        </mxCell>
        <mxCell id="vgEeMwDEZ6jyyLXf4dS--26" value="" style="endArrow=classic;html=1;rounded=0;exitX=1;exitY=0.5;exitDx=0;exitDy=0;entryX=0;entryY=0.5;entryDx=0;entryDy=0;" edge="1" parent="1" source="vgEeMwDEZ6jyyLXf4dS--23" target="vgEeMwDEZ6jyyLXf4dS--25">
          <mxGeometry width="50" height="50" relative="1" as="geometry">
            <mxPoint x="293" y="506" as="sourcePoint" />
            <mxPoint x="343" y="456" as="targetPoint" />
          </mxGeometry>
        </mxCell>
        <mxCell id="vgEeMwDEZ6jyyLXf4dS--28" value="Да" style="text;html=1;align=center;verticalAlign=middle;whiteSpace=wrap;rounded=0;" vertex="1" parent="1">
          <mxGeometry x="411" y="426" width="60" height="30" as="geometry" />
        </mxCell>
        <mxCell id="vgEeMwDEZ6jyyLXf4dS--29" value="Нет" style="text;html=1;align=center;verticalAlign=middle;whiteSpace=wrap;rounded=0;" vertex="1" parent="1">
          <mxGeometry x="521" y="494" width="60" height="30" as="geometry" />
        </mxCell>
        <mxCell id="vgEeMwDEZ6jyyLXf4dS--36" style="edgeStyle=orthogonalEdgeStyle;rounded=0;orthogonalLoop=1;jettySize=auto;html=1;exitX=1;exitY=0.5;exitDx=0;exitDy=0;entryX=0;entryY=0.5;entryDx=0;entryDy=0;" edge="1" parent="1" source="vgEeMwDEZ6jyyLXf4dS--30" target="vgEeMwDEZ6jyyLXf4dS--33">
          <mxGeometry relative="1" as="geometry" />
        </mxCell>
        <mxCell id="vgEeMwDEZ6jyyLXf4dS--30" value="Получение результата на экране" style="rounded=0;whiteSpace=wrap;html=1;" vertex="1" parent="1">
          <mxGeometry x="593" y="535" width="120" height="60" as="geometry" />
        </mxCell>
        <mxCell id="vgEeMwDEZ6jyyLXf4dS--33" value="" style="ellipse;whiteSpace=wrap;html=1;aspect=fixed;" vertex="1" parent="1">
          <mxGeometry x="751" y="539.5" width="51" height="51" as="geometry" />
        </mxCell>
        <mxCell id="vgEeMwDEZ6jyyLXf4dS--34" value="Конец" style="text;html=1;align=center;verticalAlign=middle;whiteSpace=wrap;rounded=0;" vertex="1" parent="1">
          <mxGeometry x="746.5" y="505" width="60" height="30" as="geometry" />
        </mxCell>
        <mxCell id="vgEeMwDEZ6jyyLXf4dS--39" value="" style="edgeStyle=orthogonalEdgeStyle;rounded=0;orthogonalLoop=1;jettySize=auto;html=1;" edge="1" parent="1" source="vgEeMwDEZ6jyyLXf4dS--37" target="vgEeMwDEZ6jyyLXf4dS--9">
          <mxGeometry relative="1" as="geometry" />
        </mxCell>
        <mxCell id="vgEeMwDEZ6jyyLXf4dS--37" value="Выбор калькулятора" style="rounded=0;whiteSpace=wrap;html=1;" vertex="1" parent="1">
          <mxGeometry x="57" y="212" width="120" height="60" as="geometry" />
        </mxCell>
      </root>
    </mxGraphModel>
  </diagram>
</mxfile>
